<?xml version="1.0" encoding="UTF-8" standalone="no"?><!DOCTYPE svg PUBLIC "-//W3C//DTD SVG 1.1//EN" "http://www.w3.org/Graphics/SVG/1.1/DTD/svg11.dtd"><svg width="100%" height="100%" viewBox="0 0 13763 2842" version="1.1" xmlns="http://www.w3.org/2000/svg" xmlns:xlink="http://www.w3.org/1999/xlink" xml:space="preserve" xmlns:serif="http://www.serif.com/" style="fill-rule:evenodd;clip-rule:evenodd;stroke-linejoin:round;stroke-miterlimit:2;"><rect id="Artboard1" x="0" y="0" width="13758.5" height="2840.31" style="fill:none;"/><g><path d="M3270.46,2303.66l-0,-1750l750,0c48.333,0 90,17.501 125,52.501c35,35 52.5,77.5 52.5,127.5l-0,537.5c-0,50 -17.5,92.5 -52.5,127.5c-35,35 -76.667,52.5 -125,52.5l-52.5,-0l230,852.5l-230,-0l-232.5,-852.5l-232.5,-0l-0,852.5l-232.5,-0Zm232.5,-1085l375,-0c23.333,-0 44.166,-8.75 62.5,-26.25c18.333,-17.5 27.5,-38.75 27.5,-63.75l-0,-252.5c-0,-25 -9.167,-46.25 -27.5,-63.75c-18.334,-17.5 -39.167,-26.25 -62.5,-26.25l-375,-0l-0,432.5Zm1002.5,1085c-50,-0 -92.917,-17.917 -128.75,-53.75c-35.834,-35.834 -53.75,-78.75 -53.75,-128.75l-0,-887.5c-0,-50 17.916,-92.5 53.75,-127.5c35.833,-35 78.75,-52.5 128.75,-52.5l340,-0c51.666,-0 95,17.5 130,52.5c35,35 52.5,77.5 52.5,127.5l-0,380c-0,50 -17.5,92.916 -52.5,128.75c-35,35.833 -78.334,53.75 -130,53.75l-287.5,-0l-0,182.5c-0,25 8.75,46.25 26.25,63.75c17.5,17.5 39.583,26.25 66.25,26.25l325,-0l52.5,235l-522.5,-0Zm52.5,-742.5l145,-0c25,-0 46.25,-8.75 63.75,-26.25c17.5,-17.5 26.25,-38.75 26.25,-63.75l-0,-92.5c-0,-25 -8.75,-46.25 -26.25,-63.75c-17.5,-17.5 -38.75,-26.25 -63.75,-26.25l-52.5,-0c-26.667,-0 -48.75,8.75 -66.25,26.25c-17.5,17.5 -26.25,38.75 -26.25,63.75l-0,182.5Zm630.012,742.5l0,-1250l522.5,-0c48.333,-0 90.833,17.5 127.5,52.5c36.667,35 55,77.5 55,127.5l0,1070l-235,-0l0,-925c0,-26.667 -9.167,-48.334 -27.5,-65c-18.333,-16.667 -39.167,-25 -62.5,-25l-145,-0l0,1015l-235,-0Zm1022.5,-0c-51.667,-0 -95,-17.5 -130,-52.5c-35,-35 -52.5,-78.334 -52.5,-130l0,-885c0,-51.667 17.5,-95 52.5,-130c35,-35 78.333,-52.5 130,-52.5l287.5,-0l0,-570l235,-55l0,1875l-522.5,-0Zm142.5,-235l145,-0l0,-780l-145,-0c-23.333,-0 -44.167,8.333 -62.5,25c-18.333,16.666 -27.5,38.333 -27.5,65l0,600c0,23.333 9.167,44.166 27.5,62.5c18.333,18.333 39.167,27.5 62.5,27.5Zm737.5,235c-50,-0 -92.917,-17.917 -128.75,-53.75c-35.833,-35.834 -53.75,-78.75 -53.75,-128.75l0,-887.5c0,-50 17.917,-92.5 53.75,-127.5c35.833,-35 78.75,-52.5 128.75,-52.5l340,-0c51.667,-0 95,17.5 130,52.5c35,35 52.5,77.5 52.5,127.5l0,380c0,50 -17.5,92.916 -52.5,128.75c-35,35.833 -78.333,53.75 -130,53.75l-287.5,-0l0,182.5c0,25 8.75,46.25 26.25,63.75c17.5,17.5 39.583,26.25 66.25,26.25l325,-0l52.5,235l-522.5,-0Zm52.5,-742.5l145,-0c25,-0 46.25,-8.75 63.75,-26.25c17.5,-17.5 26.25,-38.75 26.25,-63.75l0,-92.5c0,-25 -8.75,-46.25 -26.25,-63.75c-17.5,-17.5 -38.75,-26.25 -63.75,-26.25l-52.5,-0c-26.667,-0 -48.75,8.75 -66.25,26.25c-17.5,17.5 -26.25,38.75 -26.25,63.75l0,182.5Zm595,742.5l0,-1250l522.5,-0c50,-0 92.917,17.916 128.75,53.75c35.833,35.833 53.75,78.75 53.75,128.75l0,272.5l-235,-52.5l0,-75c0,-25 -8.75,-46.667 -26.25,-65c-17.5,-18.334 -38.75,-27.5 -63.75,-27.5l-145,-0l0,1015l-235,-0Zm1435,-0c-50,-0 -92.5,-17.5 -127.5,-52.5c-35,-35 -52.5,-77.5 -52.5,-127.5l0,-387.5l232.5,52.5l0,192.5c0,25 8.75,46.25 26.25,63.75c17.5,17.5 37.917,26.25 61.25,26.25l285,-0c25,-0 46.25,-8.75 63.75,-26.25c17.5,-17.5 26.25,-38.75 26.25,-63.75l0,-440c0,-25 -8.75,-46.25 -26.25,-63.75c-17.5,-17.501 -38.75,-26.25 -63.75,-26.25l-425,-0c-50,-0 -92.5,-17.5 -127.5,-52.5c-35,-35 -52.5,-77.5 -52.5,-127.5l0,-537.5c0,-50 17.5,-92.5 52.5,-127.5c35,-35 77.5,-52.501 127.5,-52.501l567.5,0c50,0 92.5,17.501 127.5,52.501c35,35 52.5,77.5 52.5,127.5l0,270l-232.5,-55l0,-72.5c0,-25 -8.75,-46.25 -26.25,-63.75c-17.5,-17.5 -38.75,-26.25 -63.75,-26.25l-285,-0c-23.333,-0 -43.75,8.75 -61.25,26.25c-17.5,17.5 -26.25,38.75 -26.25,63.75l0,252.5c0,25 8.75,46.25 26.25,63.75c17.5,17.5 37.917,26.25 61.25,26.25l427.5,-0c50,-0 92.5,17.5 127.5,52.5c35,35 52.5,77.5 52.5,127.5l0,725c0,50 -17.5,92.5 -52.5,127.5c-35,35 -77.5,52.5 -127.5,52.5l-567.5,-0Zm922.5,-0l0,-1820l235,-52.5l0,622.5l297.5,-0l-55,235l-242.5,-0l0,1015l-235,-0Zm690,-0c-50,-0 -92.917,-17.5 -128.75,-52.5c-35.833,-35 -53.75,-78.334 -53.75,-130l0,-377.5c0,-50 17.917,-92.917 53.75,-128.75c35.833,-35.834 78.75,-53.75 128.75,-53.75l195,-0c26.667,-0 48.75,-8.75 66.25,-26.25c17.5,-17.5 26.25,-38.75 26.25,-63.75l0,-92.5c0,-25 -8.75,-46.25 -26.25,-63.75c-17.5,-17.5 -39.583,-26.25 -66.25,-26.25l-270,-0l52.5,-235l362.5,-0c50,-0 92.917,17.916 128.75,53.75c35.833,35.833 53.75,78.75 53.75,128.75l0,1067.5l-522.5,-0Zm142.5,-235l145,-0l0,-272.5l-145,-0c-25,-0 -46.25,8.75 -63.75,26.25c-17.5,17.5 -26.25,38.75 -26.25,63.75l0,92.5c0,25 8.75,46.25 26.25,63.75c17.5,17.5 38.75,26.25 63.75,26.25Zm530,235l0,-1820l235,-52.5l0,622.5l297.5,-0l-55,235l-242.5,-0l0,1015l-235,-0Zm815,-0c-51.667,-0 -95,-17.5 -130,-52.5c-35,-35 -52.5,-78.334 -52.5,-130l0,-1067.5l235,-0l0,925c0,23.333 9.167,44.166 27.5,62.5c18.333,18.333 39.167,27.5 62.5,27.5l145,-0l0,-1015l235,-0l0,1250l-522.5,-0Zm852.5,-0c-50,-0 -92.5,-17.917 -127.5,-53.75c-35,-35.834 -52.5,-78.75 -52.5,-128.75l0,-207.5l232.5,-0l0,65c0,25 9.167,46.25 27.5,63.75c18.333,17.5 40,26.25 65,26.25l52.5,-0c25,-0 46.25,-8.75 63.75,-26.25c17.5,-17.5 26.25,-38.75 26.25,-63.75l0,-92.5c0,-25 -8.75,-46.25 -26.25,-63.75c-17.5,-17.5 -38.75,-26.25 -63.75,-26.25l-197.5,-0c-50,-0 -92.5,-17.917 -127.5,-53.75c-35,-35.834 -52.5,-78.75 -52.5,-128.75l0,-377.5c0,-50 17.5,-92.917 52.5,-128.75c35,-35.834 77.5,-53.75 127.5,-53.75l342.5,-0c50,-0 92.5,17.916 127.5,53.75c35,35.833 52.5,78.75 52.5,128.75l0,207.5l-235,-0l0,-65c0,-25 -8.75,-46.25 -26.25,-63.75c-17.5,-17.5 -38.75,-26.25 -63.75,-26.25l-52.5,-0c-25,-0 -46.667,8.75 -65,26.25c-18.333,17.5 -27.5,38.75 -27.5,63.75l0,92.5c0,25 9.167,46.25 27.5,63.75c18.333,17.5 40,26.25 65,26.25l197.5,-0c50,-0 92.5,17.916 127.5,53.75c35,35.833 52.5,78.75 52.5,128.75l0,387.5c-1.667,46.666 -20,87.083 -55,121.25c-35,34.166 -76.667,51.25 -125,51.25l-342.5,-0Z" style="fill:#fff;"/></g><g><g><clipPath id="_clip1"><path d="M1854.87,493.579c116.05,0 210.129,94.079 210.129,210.129l-0,1497.81c-0,116.05 -94.079,210.129 -210.129,210.129l-1497.81,-0c-116.05,-0 -210.129,-94.079 -210.129,-210.129l0,-1497.81c0,-116.05 94.079,-210.129 210.129,-210.129l1497.81,0Z"/></clipPath><g clip-path="url(#_clip1)"><path d="M1837.66,75.663l645.25,645.25l-2108.65,2108.65l-645.25,-645.251l2108.65,-2108.65Z" style="fill:#f0ca8c;"/><path d="M1192.41,-569.588l704.841,704.846l-2108.65,2108.65l-704.841,-704.842l2108.65,-2108.65Z" style="fill:#0b6e81;"/><path d="M2425.58,663.583l702.58,702.58l-2108.65,2108.65l-702.58,-702.58l2108.65,-2108.65Z" style="fill:#e76224;"/></g></g></g></svg>