<?xml version="1.0" encoding="UTF-8" standalone="no"?><!DOCTYPE svg PUBLIC "-//W3C//DTD SVG 1.1//EN" "http://www.w3.org/Graphics/SVG/1.1/DTD/svg11.dtd"><svg width="100%" height="100%" viewBox="0 0 3303 682" version="1.1" xmlns="http://www.w3.org/2000/svg" xmlns:xlink="http://www.w3.org/1999/xlink" xml:space="preserve" xmlns:serif="http://www.serif.com/" style="fill-rule:evenodd;clip-rule:evenodd;stroke-linejoin:round;stroke-miterlimit:2;"><rect id="Artboard1" x="0" y="0" width="3302.04" height="681.674" style="fill:none;"/><g transform="matrix(600,0,0,600,3196.02,552.879)"></g><text x="645.417px" y="552.879px" style="font-family:'OdibeeSans-Regular', 'Odibee Sans';font-size:600px;fill:#fff;">R<tspan x="910.017px 1109.22px 1319.22px 1530.42px 1729.62px 1934.82px 2018.82px 2295.42px 2417.22px 2622.42px 2774.22px 2979.42px " y="552.879px 552.879px 552.879px 552.879px 552.879px 552.879px 552.879px 552.879px 552.879px 552.879px 552.879px 552.879px ">ender Status</tspan></text><g><clipPath id="_clip1"><path d="M528.844,118.459c27.852,-0 50.431,22.579 50.431,50.431l0,359.474c0,27.852 -22.579,50.431 -50.431,50.431l-359.474,0c-27.852,0 -50.431,-22.579 -50.431,-50.431l-0,-359.474c-0,-27.852 22.579,-50.431 50.431,-50.431l359.474,-0Z"/></clipPath><g clip-path="url(#_clip1)"><path d="M524.715,18.159l154.86,154.86l-506.076,506.076l-154.86,-154.86l506.076,-506.076Z" style="fill:#f0ca8c;"/><path d="M369.855,-136.701l169.162,169.163l-506.075,506.075l-169.162,-169.162l506.075,-506.076Z" style="fill:#0b6e81;"/><path d="M665.816,159.26l168.619,168.619l-506.076,506.076l-168.619,-168.619l506.076,-506.076Z" style="fill:#e76224;"/></g></g></svg>